<svg width="135" height="64" viewBox="0 0 135 64" fill="none" xmlns="http://www.w3.org/2000/svg">
<path d="M32.0001 8C19.2001 8 8.00007 18.2933 8.00007 32C8.00007 37.6533 9.97341 42.8533 13.2534 46.96L8.77341 51.44C7.73341 52.48 7.73341 54.16 8.77341 55.2C9.81341 56.24 11.4934 56.24 12.5334 55.2L17.0134 50.72C21.1467 54.0267 26.3467 56 32.0001 56C38.1334 56 44.2934 53.6533 48.9601 48.96C53.6534 44.2933 56.0001 38.1333 56.0001 32V13.3333C56.0001 10.4 53.6001 8 50.6667 8H32.0001ZM42.2134 32.6933L28.4534 45.04C28.0267 45.44 27.3601 45.4133 26.9601 45.0133C26.5867 44.64 26.5334 44.0533 26.8534 43.6267L33.3601 34.7467L22.5601 33.68C21.3867 33.5733 20.8801 32.1067 21.7601 31.3067L35.5201 18.96C35.9467 18.56 36.6134 18.5867 37.0134 18.9867C37.3867 19.36 37.4401 19.9467 37.1201 20.3733L30.6134 29.2533L41.4134 30.32C42.6134 30.4267 43.0934 31.8933 42.2134 32.6933Z" fill="#00B960"/>
<circle cx="32" cy="32" r="16" fill="#00B960"/>
<circle cx="24" cy="32" r="3" fill="white"/>
<circle cx="32" cy="32" r="3" fill="white"/>
<circle cx="40" cy="32" r="3" fill="white"/>
<path d="M83.988 39H81.468L75.762 30.378V39H73.242V26.418H75.762L81.468 35.058V26.418H83.988V39ZM85.8303 33.978C85.8303 32.97 86.0283 32.076 86.4243 31.296C86.8323 30.516 87.3783 29.916 88.0623 29.496C88.7583 29.076 89.5323 28.866 90.3843 28.866C91.1283 28.866 91.7763 29.016 92.3283 29.316C92.8923 29.616 93.3423 29.994 93.6783 30.45V29.028H96.2163V39H93.6783V37.542C93.3543 38.01 92.9043 38.4 92.3283 38.712C91.7643 39.012 91.1103 39.162 90.3663 39.162C89.5263 39.162 88.7583 38.946 88.0623 38.514C87.3783 38.082 86.8323 37.476 86.4243 36.696C86.0283 35.904 85.8303 34.998 85.8303 33.978ZM93.6783 34.014C93.6783 33.402 93.5583 32.88 93.3183 32.448C93.0783 32.004 92.7543 31.668 92.3463 31.44C91.9383 31.2 91.5003 31.08 91.0323 31.08C90.5643 31.08 90.1323 31.194 89.7363 31.422C89.3403 31.65 89.0163 31.986 88.7643 32.43C88.5243 32.862 88.4043 33.378 88.4043 33.978C88.4043 34.578 88.5243 35.106 88.7643 35.562C89.0163 36.006 89.3403 36.348 89.7363 36.588C90.1443 36.828 90.5763 36.948 91.0323 36.948C91.5003 36.948 91.9383 36.834 92.3463 36.606C92.7543 36.366 93.0783 36.03 93.3183 35.598C93.5583 35.154 93.6783 34.626 93.6783 34.014ZM101.612 31.098V35.922C101.612 36.258 101.69 36.504 101.846 36.66C102.014 36.804 102.29 36.876 102.674 36.876H103.844V39H102.26C100.136 39 99.0735 37.968 99.0735 35.904V31.098H97.8855V29.028H99.0735V26.562H101.612V29.028H103.844V31.098H101.612ZM115.07 29.028V39H112.532V37.74C112.208 38.172 111.782 38.514 111.254 38.766C110.738 39.006 110.174 39.126 109.562 39.126C108.782 39.126 108.092 38.964 107.492 38.64C106.892 38.304 106.418 37.818 106.07 37.182C105.734 36.534 105.566 35.766 105.566 34.878V29.028H108.086V34.518C108.086 35.31 108.284 35.922 108.68 36.354C109.076 36.774 109.616 36.984 110.3 36.984C110.996 36.984 111.542 36.774 111.938 36.354C112.334 35.922 112.532 35.31 112.532 34.518V29.028H115.07ZM120.076 30.576C120.4 30.048 120.82 29.634 121.336 29.334C121.864 29.034 122.464 28.884 123.136 28.884V31.53H122.47C121.678 31.53 121.078 31.716 120.67 32.088C120.274 32.46 120.076 33.108 120.076 34.032V39H117.556V29.028H120.076V30.576ZM134.104 33.798C134.104 34.158 134.08 34.482 134.032 34.77H126.742C126.802 35.49 127.054 36.054 127.498 36.462C127.942 36.87 128.488 37.074 129.136 37.074C130.072 37.074 130.738 36.672 131.134 35.868H133.852C133.564 36.828 133.012 37.62 132.196 38.244C131.38 38.856 130.378 39.162 129.19 39.162C128.23 39.162 127.366 38.952 126.598 38.532C125.842 38.1 125.248 37.494 124.816 36.714C124.396 35.934 124.186 35.034 124.186 34.014C124.186 32.982 124.396 32.076 124.816 31.296C125.236 30.516 125.824 29.916 126.58 29.496C127.336 29.076 128.206 28.866 129.19 28.866C130.138 28.866 130.984 29.07 131.728 29.478C132.484 29.886 133.066 30.468 133.474 31.224C133.894 31.968 134.104 32.826 134.104 33.798ZM131.494 33.078C131.482 32.43 131.248 31.914 130.792 31.53C130.336 31.134 129.778 30.936 129.118 30.936C128.494 30.936 127.966 31.128 127.534 31.512C127.114 31.884 126.856 32.406 126.76 33.078H131.494Z" fill="url(#paint0_linear_1_4392)"/>
<defs>
<linearGradient id="paint0_linear_1_4392" x1="101.203" y1="15.0625" x2="101.203" y2="66.25" gradientUnits="userSpaceOnUse">
<stop stop-color="#00B960"/>
<stop offset="1" stop-color="#00552C"/>
</linearGradient>
</defs>
</svg>
